<?xml version="1.0" encoding="utf-8" ?>
<svg xmlns="http://www.w3.org/2000/svg" xmlns:xlink="http://www.w3.org/1999/xlink" width="116" height="18">
	<path fill="#FFBA00" d="M10.00077 0L13.296408 5.6550002L20 6.8699999L15.333488 11.595L16.181244 18L10.00077 15.255L3.8202939 18L4.6680512 11.595L0 6.8699999L6.7035928 5.6550002L10.00077 0M34.000771 0L37.296406 5.6550002L44 6.8699999L39.333488 11.595L40.181244 18L34.000771 15.255L27.820293 18L28.668051 11.595L24 6.8699999L30.703592 5.6550002L34.000771 0M58.000771 0L61.296406 5.6550002L68 6.8699999L63.333488 11.595L64.181244 18L58.000771 15.255L51.820293 18L52.668053 11.595L48 6.8699999L54.703594 5.6550002L58.000771 0M82.000771 0L85.29641 5.6550002L92 6.8699999L87.333488 11.595L88.181244 18L82.000771 15.255L75.820297 18L76.668053 11.595L72 6.8699999L78.70359 5.6550002L82.000771 0M106.00077 0L109.29641 5.6550002L116 6.8699999L111.33349 11.595L112.18124 18L106.00077 15.255L99.820297 18L100.66805 11.595L96 6.8699999L102.70359 5.6550002L106.00077 0" fill-rule="evenodd"/>
</svg>
