<?xml version="1.0" encoding="UTF-8"?>
<svg id="Layer_1" data-name="Layer 1" xmlns="http://www.w3.org/2000/svg" viewBox="0 0 36.92 33">
  <path d="M36.92,4.82c-.23,.76-.48,1.51-.7,2.28-1,3.46-1.99,6.92-2.98,10.38-.19,.65-.45,.85-1.14,.85-7.69,0-15.38,0-23.07,0-.16,0-.33,0-.55,0,.17,.83,.15,1.64,.6,2.35,.58,.92,1.44,1.33,2.51,1.33,6.57,0,13.14,0,19.72,0,.3,0,.6,0,.9,0,.61,0,1.02,.39,1.01,.93-.01,.53-.42,.88-1.01,.89-5.39,0-10.79,0-16.18,0-1.49,0-2.98,0-4.47,0-2.45,0-4.3-1.59-4.7-3.99-.66-3.98-1.33-7.95-2-11.93-.2-1.19-.4-2.38-.59-3.56-.25-1.57-1.32-2.49-2.91-2.52-.27,0-.58,.02-.8-.1C.32,1.59,.18,1.31,0,1.1c0-.12,0-.24,0-.36C.16,.37,.37,.06,.81,.02c1.51-.12,2.86,.25,3.95,1.34,.64,.64,1.04,1.42,1.26,2.32,.17,0,.32,0,.48,0,9.73,0,19.47,0,29.2,0,.59,0,1,.18,1.22,.73v.43ZM8.17,16.5h.44c7.51,0,15.02,0,22.53,0,.35,0,.49-.09,.58-.43,.8-2.83,1.62-5.66,2.43-8.49,.2-.68,.38-1.36,.58-2.05H6.33c.62,3.67,1.22,7.3,1.84,10.97Z"/>
  <path d="M27.66,33c-2.04-.01-3.66-1.65-3.66-3.68,0-2.05,1.67-3.66,3.78-3.64,1.98,.02,3.6,1.68,3.59,3.68-.01,2.03-1.66,3.65-3.71,3.64Zm1.86-3.64c.04-.97-.79-1.82-1.8-1.85-1.01-.03-1.86,.79-1.89,1.81-.02,.98,.8,1.82,1.81,1.86,1,.03,1.84-.78,1.88-1.81Z"/>
  <path d="M11.05,33c-2.04-.02-3.68-1.67-3.66-3.69,.02-2.06,1.69-3.65,3.79-3.63,1.98,.02,3.61,1.71,3.59,3.73-.02,1.99-1.7,3.61-3.72,3.6Zm1.87-3.65c.02-1-.79-1.82-1.8-1.85-1.01-.02-1.87,.8-1.88,1.82-.01,.99,.8,1.82,1.81,1.85,1,.03,1.85-.8,1.87-1.82Z"/>
</svg>