<?xml version="1.0" encoding="utf-8" ?>
<svg xmlns="http://www.w3.org/2000/svg" xmlns:xlink="http://www.w3.org/1999/xlink" width="113" height="119">
	<path fill="none" stroke="#222430" stroke-width="1.5" stroke-linejoin="round" transform="translate(99.9105 62.5039)" d="M0 0.26106194L3.1221368 0.26106194L6.2447972 0.26106194L3.1221368 0.26106194L0 0.26106194Z" fill-rule="evenodd"/>
	<path fill="none" stroke="#222430" stroke-width="1.5" stroke-linejoin="round" transform="translate(99.0992 53.1738)" d="M0 1.188354C0 1.188354 1.372316 0.92259294 3.0650661 0.59417701C4.7578158 0.26628318 6.1296086 0 6.1296086 0C6.1296086 0 4.7578158 0.26628318 3.0650661 0.59417701C1.372316 0.92259294 0 1.188354 0 1.188354Z" fill-rule="evenodd"/>
	<path fill="none" stroke="#222430" stroke-width="1.5" stroke-linejoin="round" transform="translate(96.6949 43.9353)" d="M0 2.3328495C0 2.3328495 1.2958727 1.8107257 2.894901 1.1664248C4.4939294 0.52212387 5.7898021 0 5.7898021 0C5.7898021 0 4.4939294 0.52212387 2.894901 1.1664248C1.2958727 1.8107257 0 2.3328495 0 2.3328495Z" fill-rule="evenodd"/>
	<path fill="none" stroke="#222430" stroke-width="1.5" stroke-linejoin="round" transform="translate(92.7861 35.3886)" d="M0 3.3917167C0 3.3917167 1.1723067 2.6325486 2.618448 1.6958584C4.0645895 0.75916815 5.236896 0 5.236896 0C5.236896 0 4.0645895 0.75916815 2.618448 1.6958584C1.1723067 2.6325486 0 3.3917167 0 3.3917167Z" fill-rule="evenodd"/>
	<path fill="none" stroke="#222430" stroke-width="1.5" stroke-linejoin="round" transform="translate(87.5163 27.8481)" d="M0 4.3257966C0 4.3257966 1.0058066 3.3572567 2.2461793 2.1631594C3.486552 0.96853983 4.4918351 0 4.4918351 0C4.4918351 0 3.486552 0.96853983 2.2461793 2.1631594C1.0058066 3.3572567 0 4.3257966 0 4.3257966Z" fill-rule="evenodd"/>
	<path fill="none" stroke="#222430" stroke-width="1.5" stroke-linejoin="round" transform="translate(81.0793 21.5903)" d="M0 5.1011505C0 5.1011505 0.8016085 3.9592655 1.7906604 2.5505753C2.7797122 1.1418849 3.5818443 0 3.5818443 0C3.5818443 0 2.7797122 1.1418849 1.7906604 2.5505753C0.8016085 3.9592655 0 5.1011505 0 5.1011505Z" fill-rule="evenodd"/>
	<path fill="none" stroke="#222430" stroke-width="1.5" stroke-linejoin="round" transform="translate(73.7115 16.8461)" d="M0 5.68854C0 5.68854 0.56861323 4.4150796 1.2696934 2.8440089C1.9712971 1.2734601 2.5399103 0 2.5399103 0C2.5399103 0 1.9712971 1.2734601 1.2696934 2.8440089C0.56861323 4.4150796 0 5.68854 0 5.68854Z" fill-rule="evenodd"/>
	<path fill="none" stroke="#222430" stroke-width="1.5" stroke-linejoin="round" transform="translate(65.6837 13.7884)" d="M0 6.0676017C0 6.0676017 0.31467453 4.7095575 0.70212734 3.0340619C1.0901037 1.3585664 1.4047784 0 1.4047784 0C1.4047784 0 1.0901037 1.3585664 0.70212734 3.0340619C0.31467453 4.7095575 0 6.0676017 0 6.0676017Z" fill-rule="evenodd"/>
	<path fill="none" stroke="#222430" stroke-width="1.5" stroke-linejoin="round" transform="translate(57.138 12.531)" d="M0.15288679 6.2231946C0.15288679 6.2231946 0.20158018 4.8301682 0.26179245 3.1113362C0.32200471 1.3930266 0.37069812 0 0.37069812 0C0.37069812 0 0.32200471 1.3930266 0.26179245 3.1113362C0.20158018 4.8301682 0.15288679 6.2231946 0.15288679 6.2231946Z" fill-rule="evenodd"/>
	<path fill="none" stroke="#222430" stroke-width="1.5" stroke-linejoin="round" transform="translate(47.8644 13.1189)" d="M0.97700942 6.1506195C0.97700942 6.1506195 0.75815094 4.7737789 0.48850471 3.0753098C0.2188585 1.3768407 0 0 0 0C0 0 0.2188585 1.3768407 0.48850471 3.0753098C0.75815094 4.7737789 0.97700942 6.1506195 0.97700942 6.1506195Z" fill-rule="evenodd"/>
	<path fill="none" stroke="#222430" stroke-width="1.5" stroke-linejoin="round" transform="translate(38.5101 15.5317)" d="M2.1357028 5.8514423C2.1357028 5.8514423 1.6576698 4.5414338 1.0675896 2.9254601C0.47803301 1.3100089 0 0 0 0C0 0 0.47803301 1.3100089 1.0675896 2.9254601C1.6576698 4.5414338 2.1357028 5.8514423 2.1357028 5.8514423Z" fill-rule="evenodd"/>
	<path fill="none" stroke="#222430" stroke-width="1.5" stroke-linejoin="round" transform="translate(29.7888 19.6797)" d="M3.216382 5.3376727C3.216382 5.3376727 2.4964528 4.1425309 1.6084528 2.6685753C0.71992922 1.1946194 0 0 0 0C0 0 0.71992922 1.1946194 1.6084528 2.6685753C2.4964528 4.1425309 3.216382 5.3376727 3.216382 5.3376727Z" fill-rule="evenodd"/>
	<path fill="none" stroke="#222430" stroke-width="1.5" stroke-linejoin="round" transform="translate(22.0221 25.411)" d="M4.1782074 4.627584C4.1782074 4.627584 3.2430849 3.5916903 2.0891037 2.3135309C0.93512267 1.0358938 0 0 0 0C0 0 0.93512267 1.0358938 2.0891037 2.3135309C3.2430849 3.5916903 4.1782074 4.627584 4.1782074 4.627584Z" fill-rule="evenodd"/>
	<path fill="none" stroke="#222430" stroke-width="1.5" stroke-linejoin="round" transform="translate(15.4941 32.5146)" d="M4.9871464 3.7478054C4.9871464 3.7478054 3.8708632 2.9087522 2.493835 1.8739027C1.1162831 0.83905309 0 0 0 0C0 0 1.1162831 0.83905309 2.493835 1.8739027C3.8708632 2.9087522 4.9871464 3.7478054 4.9871464 3.7478054Z" fill-rule="evenodd"/>
	<path fill="none" stroke="#222430" stroke-width="1.5" stroke-linejoin="round" transform="translate(10.4454 40.7305)" d="M5.6128302 2.7296636C5.6128302 2.7296636 4.3562264 2.1187787 2.8064151 1.3648318C1.2566037 0.61088496 0 0 0 0C0 0 1.2566037 0.61088496 2.8064151 1.3648318C4.3562264 2.1187787 5.6128302 2.7296636 5.6128302 2.7296636Z" fill-rule="evenodd"/>
	<path fill="none" stroke="#222430" stroke-width="1.5" stroke-linejoin="round" transform="translate(7.06191 49.7554)" d="M6.0316982 1.6117965C6.0316982 1.6117965 4.6813726 1.2510089 3.0158491 0.80615932C1.3503255 0.3607876 0 0 0 0C0 0 1.3503255 0.3607876 3.0158491 0.80615932C4.6813726 1.2510089 6.0316982 1.6117965 6.0316982 1.6117965Z" fill-rule="evenodd"/>
	<path fill="none" stroke="#222430" stroke-width="1.5" stroke-linejoin="round" transform="translate(5.46681 59.2148)" d="M6.2296133 0.47826549C6.2296133 0.47826549 4.8353066 0.38115045 3.1148067 0.26106194C1.3948302 0.14097345 0 0.043858409 0 0.043858409C0 0.043858409 1.3948302 0.14097345 3.1148067 0.26106194C4.8353066 0.38115045 6.2296133 0.47826549 6.2296133 0.47826549Z" fill-rule="evenodd"/>
	<path fill="none" stroke="#222430" stroke-width="1.5" stroke-linejoin="round" transform="translate(5.7198 68.1318)" d="M6.1981983 0C6.1981983 0 4.810698 0.16969027 3.0990992 0.37958407C1.3875 0.58895576 0 0.75864601 0 0.75864601C0 0.75864601 1.3875 0.58895576 3.0990992 0.37958407C4.810698 0.16969027 6.1981983 0 6.1981983 0Z" fill-rule="evenodd"/>
	<path fill="none" stroke="#222430" stroke-width="1.5" stroke-linejoin="round" transform="translate(7.81121 76.3733)" d="M5.9390235 0C5.9390235 0 4.6096416 0.43075222 2.9697735 0.96227431C1.3293821 1.4932743 0 1.9245486 0 1.9245486C0 1.9245486 1.3293821 1.4932743 2.9697735 0.96227431C4.6096416 0.43075222 5.9390235 0 5.9390235 0Z" fill-rule="evenodd"/>
	<path fill="none" stroke="#222430" stroke-width="1.5" stroke-linejoin="round" transform="translate(11.6642 84.1148)" d="M5.461514 0C5.461514 0 4.2389436 0.6756283 2.7304952 1.5094602C1.2225708 2.343292 0 3.0189204 0 3.0189204C0 3.0189204 1.2225708 2.343292 2.7304952 1.5094602C4.2389436 0.6756283 5.461514 0 5.461514 0Z" fill-rule="evenodd"/>
	<path fill="none" stroke="#222430" stroke-width="1.5" stroke-linejoin="round" transform="translate(17.137 91.0718)" d="M4.7834716 0C4.7834716 0 3.7127407 0.89596462 2.3917358 2.0013008C1.0707312 3.1066372 0 4.0026016 0 4.0026016C0 4.0026016 1.0707312 3.1066372 2.3917358 2.0013008C3.7127407 0.89596462 4.7834716 0 4.7834716 0Z" fill-rule="evenodd"/>
	<path fill="none" stroke="#222430" stroke-width="1.5" stroke-linejoin="round" transform="translate(24.0284 96.9886)" d="M3.9300282 0C3.9300282 0 3.0504057 1.083407 1.9650141 2.419522C0.88014621 3.7561593 0 4.8395662 0 4.8395662C0 4.8395662 0.88014621 3.7561593 1.9650141 2.419522C3.0504057 1.083407 3.9300282 0 3.9300282 0Z" fill-rule="evenodd"/>
	<path fill="none" stroke="#222430" stroke-width="1.5" stroke-linejoin="round" transform="translate(32.0859 101.648)" d="M2.9315519 0C2.9315519 0 2.2755001 1.230646 1.4655142 2.7489822L0 5.4984865C0 5.4984865 0.65605187 4.2673187 1.4655142 2.7489822C2.2755001 1.230646 2.9315519 0 2.9315519 0Z" fill-rule="evenodd"/>
	<path fill="none" stroke="#222430" stroke-width="1.5" stroke-linejoin="round" transform="translate(41.0126 104.878)" d="M1.8257406 0C1.8257406 0 1.4168208 1.3329823 0.91313207 2.9776726C0.40891981 4.6218405 0 5.954823 0 5.954823C0 5.954823 0.40891981 4.6218405 0.91313207 2.9776726C1.4168208 1.3329823 1.8257406 0 1.8257406 0Z" fill-rule="evenodd"/>
	<path fill="none" stroke="#222430" stroke-width="1.5" stroke-linejoin="round" transform="translate(50.4807 106.561)" d="M0.65291035 0C0.65291035 0 0.50683022 1.3862389 0.32671699 3.0967169C0.1460802 4.8066726 0 6.1929116 0 6.1929116C0 6.1929116 0.1460802 4.8066726 0.32671699 3.0967169C0.50683022 1.3862389 0.65291035 0 0.65291035 0Z" fill-rule="evenodd"/>
	<path fill="none" stroke="#222430" stroke-width="1.5" stroke-linejoin="round" transform="translate(59.5986 106.635)" d="M0 0C0 0 0.12199529 1.3888496 0.27226415 3.101938C0.42253301 4.8145046 0.54400474 6.2033539 0.54400474 6.2033539C0.54400474 6.2033539 0.42253301 4.8145046 0.27226415 3.101938C0.12199529 1.3888496 0 0 0 0Z" fill-rule="evenodd"/>
	<path fill="none" stroke="#222430" stroke-width="1.5" stroke-linejoin="round" transform="translate(67.9221 105.097)" d="M0 0C0 0 0.38535848 1.33977 0.86077356 2.9928141C1.3356651 4.6458583 1.7210236 5.9861503 1.7210236 5.9861503C1.7210236 5.9861503 1.3356651 4.6458583 0.86077356 2.9928141C0.38535848 1.33977 0 0 0 0Z" fill-rule="evenodd"/>
	<path fill="none" stroke="#222430" stroke-width="1.5" stroke-linejoin="round" transform="translate(75.7983 102.003)" d="M0 0C0 0 0.6345849 1.2421328 1.4173443 2.7740443C2.2001038 4.306478 2.8352122 5.5486107 2.8352122 5.5486107C2.8352122 5.5486107 2.2001038 4.306478 1.4173443 2.7740443C0.6345849 1.2421328 0 0 0 0Z" fill-rule="evenodd"/>
	<path fill="none" stroke="#222430" stroke-width="1.5" stroke-linejoin="round" transform="translate(82.9378 97.4671)" d="M0 0C0 0 0.86077356 1.0985487 1.9220802 2.4534602C2.9839103 3.8083718 3.8446839 4.9069204 3.8446839 4.9069204C3.8446839 4.9069204 2.9839103 3.8083718 1.9220802 2.4534602C0.86077356 1.0985487 0 0 0 0Z" fill-rule="evenodd"/>
	<path fill="none" stroke="#222430" stroke-width="1.5" stroke-linejoin="round" transform="translate(89.0783 91.6562)" d="M0 0C0 0 1.0550236 0.91476107 2.3566556 2.0425487C3.6577642 3.1708584 4.7127876 4.0856194 4.7127876 4.0856194C4.7127876 4.0856194 3.6577642 3.1708584 2.3566556 2.0425487C1.0550236 0.91476107 0 0 0 0Z" fill-rule="evenodd"/>
	<path fill="none" stroke="#222430" stroke-width="1.5" stroke-linejoin="round" transform="translate(93.9941 84.7838)" d="M0 0C0 0 1.2105283 0.69703537 2.7037926 1.5569735C4.1975803 2.4163895 5.4081087 3.1134248 5.4081087 3.1134248C5.4081087 3.1134248 4.1975803 2.4163895 2.7037926 1.5569735C1.2105283 0.69703537 0 0 0 0Z" fill-rule="evenodd"/>
	<path fill="none" stroke="#222430" stroke-width="1.5" stroke-linejoin="round" transform="translate(97.5046 77.1022)" d="M0 0C0 0 1.3215283 0.45372567 2.9519718 1.0134425C4.5824151 1.5736815 5.9044671 2.0274072 5.9044671 2.0274072C5.9044671 2.0274072 4.5824151 1.5736815 2.9519718 1.0134425C1.3215283 0.45372567 0 0 0 0Z" fill-rule="evenodd"/>
	<path fill="none" stroke="#222430" stroke-width="1.5" stroke-linejoin="round" transform="translate(99.4808 68.8938)" d="M0 0C0 0 1.3843585 0.19423009 3.091769 0.43336284C4.7997026 0.6724956 6.1840615 0.86672568 6.1840615 0.86672568C6.1840615 0.86672568 4.7997026 0.6724956 3.091769 0.43336284C1.3843585 0.19423009 0 0 0 0Z" fill-rule="evenodd"/>
	<path fill="none" stroke="#2E302E" stroke-width="1.5" stroke-miterlimit="10" transform="translate(0.750027 7.82286)" d="M110.22365 54.958042Q110.22365 56.307186 110.15726 57.654701Q110.09088 59.00222 109.95827 60.344864Q109.82565 61.687508 109.62714 63.022049Q109.42862 64.35659 109.16468 65.67981Q108.90074 67.003036 108.57201 68.311745Q108.24327 69.620453 107.85054 70.911507Q107.45781 72.202553 107.00203 73.472832Q106.54623 74.743111 106.0285 75.989563Q105.51076 77.236008 104.9323 78.45562Q104.35387 79.675232 103.7161 80.865074Q103.07834 82.054909 102.3828 83.212105Q101.68726 84.369308 100.93562 85.491081Q100.18398 86.612854 99.378052 87.696495Q98.572113 88.780144 97.713837 89.823044Q96.855545 90.865952 95.946983 91.865593Q95.038414 92.86525 94.081757 93.819237Q93.125099 94.773224 92.12265 95.67926Q91.120209 96.585281 90.074387 97.441177Q89.028564 98.297058 87.941887 99.100746Q86.855209 99.904427 85.730301 100.65397Q84.605392 101.40351 83.444954 102.09711Q82.284515 102.79071 81.091354 103.4267Q79.898186 104.06268 78.675156 104.63951Q77.452133 105.21634 76.202194 105.73264Q74.952255 106.24893 73.678429 106.70345Q72.404602 107.15796 71.10994 107.54961Q69.815277 107.94124 68.502907 108.26905Q67.190529 108.59686 65.863602 108.86007Q64.536682 109.12328 63.198406 109.32124Q61.86013 109.5192 60.513733 109.65144Q59.167324 109.78368 57.816032 109.84988Q56.464745 109.91608 55.111824 109.91608Q53.758904 109.91608 52.407619 109.84988Q51.056328 109.78368 49.709923 109.65144Q48.363518 109.5192 47.025238 109.32124Q45.686958 109.12328 44.360039 108.86008Q43.033112 108.59688 41.720741 108.26906Q40.408363 107.94125 39.113705 107.54961Q37.819038 107.15797 36.545204 106.70345Q35.27137 106.24894 34.021439 105.73264Q32.771503 105.21635 31.548481 104.63951Q30.325457 104.06268 29.132288 103.4267Q27.939119 102.79073 26.778683 102.09712Q25.618244 101.40352 24.493332 100.65398Q23.36842 99.904434 22.281746 99.100754Q21.195072 98.297066 20.149254 97.441177Q19.103432 96.585281 18.100985 95.679253Q17.098537 94.773216 16.141878 93.819229Q15.185221 92.865234 14.276655 91.865593Q13.368091 90.865944 12.509808 89.823044Q11.651524 88.780136 10.845591 87.696487Q10.039658 86.612846 9.2880154 85.491074Q8.5363741 84.369301 7.8408346 83.212105Q7.1452951 82.054901 6.507534 80.865067Q5.869772 79.675224 5.2913246 78.455612Q4.7128768 77.236 4.195137 75.989555Q3.6773973 74.743103 3.2216129 73.472824Q2.7658281 72.202553 2.3730965 70.911507Q1.9803646 69.620453 1.6516321 68.311745Q1.3228995 67.003036 1.0589581 65.67981Q0.79501665 64.35659 0.59650224 63.022049Q0.39798775 61.687511 0.26537848 60.344868Q0.1327692 59.00222 0.066384599 57.654705Q0 56.307186 0 54.958042Q0 53.608894 0.066384599 52.261379Q0.1327692 50.913857 0.26537848 49.571213Q0.39798775 48.228565 0.59650218 46.89402Q0.79501665 45.559479 1.0589581 44.236259Q1.3228995 42.91304 1.6516321 41.604324Q1.9803646 40.295616 2.3730965 39.004562Q2.7658281 37.713512 3.2216127 36.443233Q3.6773973 35.172951 4.195137 33.926506Q4.7128768 32.680058 5.2913246 31.460447Q5.869772 30.240837 6.507534 29.050999Q7.1452951 27.861158 7.8408346 26.703959Q8.5363741 25.546759 9.2880154 24.424986Q10.039658 23.303215 10.845591 22.21957Q11.651524 21.135929 12.509808 20.093027Q13.368091 19.050125 14.276655 18.050476Q15.185221 17.050827 16.141878 16.096836Q17.098537 15.142847 18.100985 14.236817Q19.103432 13.330788 20.149252 12.474899Q21.195072 11.619011 22.281746 10.815327Q23.36842 10.011642 24.493332 9.2620983Q25.618244 8.5125542 26.778683 7.8189559Q27.939121 7.1253576 29.13229 6.4893751Q30.325459 5.8533931 31.548481 5.2765598Q32.771503 4.6997261 34.021439 4.1834311Q35.27137 3.6671362 36.545204 3.2126231Q37.819038 2.7581103 39.113705 2.3664746Q40.408363 1.9748387 41.720737 1.6470234Q43.033112 1.3192081 44.360039 1.0560032Q45.686958 0.79279828 47.025238 0.59483773Q48.363518 0.3968772 49.709923 0.26463798Q51.056328 0.13239872 52.407616 0.066199362Q53.758904 0 55.111824 0Q56.464745 0 57.816032 0.066199362Q59.16732 0.13239872 60.513729 0.26463798Q61.86013 0.3968772 63.198402 0.59483773Q64.536682 0.79279828 65.863602 1.0560032Q67.190529 1.3192081 68.502907 1.6470234Q69.815277 1.9748387 71.10994 2.3664746Q72.404602 2.7581103 73.678429 3.2126231Q74.952255 3.6671362 76.202194 4.1834311Q77.452133 4.6997261 78.675163 5.2765598Q79.898186 5.8533936 81.091354 6.4893756Q82.284515 7.1253576 83.444954 7.8189559Q84.605392 8.5125542 85.730301 9.2620983Q86.855209 10.011642 87.941887 10.815327Q89.028564 11.619011 90.074387 12.474899Q91.120209 13.330788 92.122658 14.236817Q93.125099 15.142847 94.081757 16.096836Q95.038414 17.050827 95.946976 18.050476Q96.855545 19.050125 97.713829 20.093029Q98.572113 21.135931 99.378036 22.219572Q100.18398 23.303215 100.93562 24.424988Q101.68726 25.546761 102.3828 26.70396Q103.07834 27.86116 103.7161 29.050999Q104.35387 30.240837 104.93231 31.460445Q105.51076 32.680058 106.0285 33.926506Q106.54624 35.172951 107.00203 36.44323Q107.45781 37.713512 107.85055 39.004562Q108.24329 40.295612 108.57201 41.604324Q108.90074 42.913033 109.16468 44.236256Q109.42862 45.559479 109.62714 46.89402Q109.82565 48.228561 109.95827 49.571213Q110.09088 50.913857 110.15726 52.261379Q110.22365 53.608894 110.22365 54.958042Z"/>
	<path fill="none" stroke="#222430" stroke-width="1.5" stroke-linejoin="round" transform="translate(55.3383 63.303)" d="M0.50101662 0.49961856L18.537613 33.474442" fill-rule="evenodd"/>
	<path fill="#2E302E" transform="translate(92.5118 19.8137)" d="M10.34309 14.286945C12.217217 12.82371 13.451695 10.551479 13.451695 7.993897C13.451695 3.5789895 9.8626909 0 5.43543 0C3.3380036 0 1.4287168 0.80327386 0 2.1181514C-0.011267682 2.1285732 3.414233 4.8374023 5.807745 7.6616383C8.5374613 10.88258 10.231447 14.37411 10.34309 14.286945Z" fill-rule="evenodd"/>
	<path fill="#2E302E" transform="translate(49.9715 56.9115)" d="M11.518867 5.7433629Q11.518867 5.8843546 11.51193 6.025176Q11.504992 6.1659985 11.491135 6.3063107Q11.477276 6.4466233 11.456531 6.5860891Q11.435785 6.7255545 11.408201 6.8638368Q11.380619 7.0021191 11.346265 7.1388855Q11.311911 7.2756519 11.270868 7.410573Q11.229826 7.5454931 11.182193 7.6782427Q11.134562 7.8109922 11.080456 7.9412518Q11.02635 8.0715113 10.965899 8.198966Q10.905449 8.3264217 10.8388 8.4507647Q10.772152 8.5751076 10.699465 8.6960402Q10.626778 8.8169727 10.548227 8.9342031Q10.469677 9.0514336 10.385454 9.1646795Q10.30123 9.2779255 10.211536 9.3869143Q10.121841 9.4959011 10.026893 9.6003695Q9.9319439 9.7048368 9.8319683 9.804533Q9.7319927 9.9042282 9.6272335 9.9989128Q9.5224724 10.093597 9.4131804 10.183043Q9.3038874 10.272486 9.1903248 10.356474Q9.0767622 10.440462 8.9592037 10.518793Q8.8416452 10.597124 8.7203741 10.669609Q8.5991039 10.742092 8.4744129 10.808556Q8.349721 10.875019 8.2219095 10.9353Q8.0940971 10.995581 7.9634733 11.049536Q7.8328495 11.103491 7.699728 11.150991Q7.566607 11.19849 7.4313092 11.239418Q7.296011 11.280346 7.1588621 11.314604Q7.0217123 11.348862 6.8830433 11.376368Q6.7443733 11.403873 6.6045179 11.424562Q6.4646626 11.44525 6.3239574 11.45907Q6.1832514 11.472889 6.0420361 11.479808Q5.9008198 11.486725 5.7594337 11.486726Q5.6180472 11.486725 5.4768314 11.479807Q5.3356152 11.472889 5.19491 11.459069Q5.0542049 11.44525 4.9143486 11.424562Q4.7744932 11.403873 4.6358232 11.376368Q4.4971542 11.348862 4.3600049 11.314604Q4.2228565 11.280346 4.0875583 11.239418Q3.9522603 11.19849 3.8191388 11.15099Q3.6860175 11.103492 3.5553937 11.049537Q3.4247699 10.995583 3.2969584 10.935301Q3.169147 10.875019 3.0444555 10.808556Q2.919764 10.742092 2.7984929 10.669608Q2.677222 10.597124 2.5596638 10.518793Q2.4421053 10.440462 2.3285429 10.356474Q2.2149806 10.272486 2.1056876 10.183042Q1.9963945 10.093597 1.8916342 9.9989128Q1.7868741 9.9042282 1.6868989 9.804533Q1.5869238 9.7048368 1.4919746 9.6003695Q1.3970256 9.4959011 1.3073311 9.3869133Q1.2176366 9.2779255 1.133413 9.1646795Q1.0491893 9.0514336 0.97063947 8.9342041Q0.89208949 8.8169727 0.81940252 8.6960402Q0.74671555 8.5751076 0.68006659 8.4507647Q0.61341757 8.3264217 0.55296719 8.198966Q0.49251685 8.0715113 0.43841073 7.9412518Q0.38430458 7.8109922 0.33667302 7.6782427Q0.28904149 7.5454931 0.24799927 7.4105725Q0.20695703 7.2756519 0.17260298 7.1388855Q0.13824897 7.0021191 0.11066589 6.8638363Q0.083082825 6.7255535 0.062337168 6.5860882Q0.04159151 6.4466228 0.027733246 6.3063107Q0.013874979 6.1659985 0.0069374894 6.0251765Q0 5.8843546 0 5.7433629Q0 5.6023712 0.0069374894 5.4615493Q0.013874979 5.3207273 0.027733246 5.1804152Q0.04159151 5.040102 0.062337168 4.9006362Q0.083082825 4.7611704 0.11066589 4.6228881Q0.13824897 4.4846058 0.172603 4.3478394Q0.20695701 4.2110729 0.24799925 4.0761528Q0.28904149 3.941232 0.33667302 3.8084822Q0.38430458 3.6757321 0.43841073 3.5454729Q0.49251685 3.4152136 0.55296719 3.2877586Q0.61341757 3.1603036 0.68006659 3.0359602Q0.74671555 2.9116166 0.81940252 2.790684Q0.89208949 2.6697514 0.97063947 2.5525212Q1.0491893 2.4352908 1.1334131 2.3220453Q1.2176367 2.2087998 1.3073312 2.099812Q1.3970256 1.990824 1.4919747 1.886356Q1.5869238 1.781888 1.6868989 1.682192Q1.7868741 1.5824958 1.8916342 1.4878117Q1.9963945 1.3931274 2.1056876 1.3036834Q2.2149806 1.2142391 2.3285429 1.1302506Q2.4421053 1.0462619 2.5596638 0.96793109Q2.677222 0.88960028 2.7984929 0.81711614Q2.9197638 0.74463195 3.0444553 0.67816901Q3.1691468 0.61170596 3.2969582 0.55142426Q3.4247699 0.49114257 3.5553937 0.4371874Q3.6860175 0.38323224 3.819139 0.33573362Q3.9522603 0.28823495 4.0875583 0.24730726Q4.2228565 0.20637953 4.3600054 0.17212135Q4.4971542 0.13786319 4.6358237 0.11035709Q4.7744932 0.082850993 4.9143491 0.062163226Q5.0542049 0.041475456 5.1949105 0.02765586Q5.3356156 0.013836263 5.4768314 0.0069181314Q5.6180472 0 5.7594337 0Q5.9008198 0 6.0420356 0.0069181314Q6.1832514 0.013836263 6.3239574 0.02765586Q6.4646626 0.041475456 6.6045179 0.062163223Q6.7443733 0.082850993 6.8830433 0.11035709Q7.0217123 0.13786319 7.1588616 0.17212136Q7.2960105 0.20637953 7.4313087 0.24730726Q7.5666065 0.28823495 7.699728 0.33573362Q7.8328495 0.38323224 7.9634733 0.4371874Q8.0940971 0.49114257 8.2219086 0.55142426Q8.349721 0.61170596 8.4744129 0.67816901Q8.5991039 0.74463195 8.7203751 0.81711614Q8.8416452 0.88960028 8.9592037 0.96793109Q9.0767622 1.0462619 9.1903248 1.1302506Q9.3038874 1.2142391 9.4131804 1.3036834Q9.5224724 1.3931274 9.6272335 1.4878117Q9.7319927 1.5824958 9.8319683 1.682192Q9.9319439 1.781888 10.026893 1.8863559Q10.121841 1.990824 10.211536 2.099812Q10.30123 2.2087998 10.385454 2.3220453Q10.469677 2.4352908 10.548227 2.5525212Q10.626778 2.6697514 10.699465 2.790684Q10.772152 2.9116166 10.8388 3.0359602Q10.905449 3.1603036 10.965899 3.2877586Q11.02635 3.4152133 11.080456 3.5454726Q11.134562 3.6757319 11.182194 3.8084817Q11.229825 3.9412317 11.270867 4.0761523Q11.311911 4.2110729 11.346265 4.3478389Q11.380619 4.4846053 11.408201 4.6228881Q11.435785 4.7611704 11.456531 4.9006362Q11.477276 5.040102 11.491135 5.1804147Q11.504992 5.3207273 11.51193 5.4615493Q11.518867 5.6023712 11.518867 5.7433629Z"/>
	<path fill="#2E302E" transform="translate(52.5894 1.56637)" d="M0 0L6.0121989 0L6.0121989 5.9954228L0 5.9954228L0 0Z"/>
	<path fill="#2E302E" transform="matrix(1 0 0 -1 47.3536 3.65487)" d="M0 0L16.754717 0L16.754717 3.1327434L0 3.1327434L0 0Z"/>
</svg>
