<?xml version="1.0" encoding="utf-8" ?>
<svg xmlns="http://www.w3.org/2000/svg" xmlns:xlink="http://www.w3.org/1999/xlink" width="42" height="55">
	<path fill="#222430" d="M0 0L0 55L9.4594593 55C19.256756 55 25 48.46875 25 32.3125L25 22.6875C25 6.53125 19.256756 0 9.4594593 0L0 0ZM9.7972975 8.25L10.810811 8.25C13.445946 8.25 14.864865 10.175 14.864865 13.13125L14.864865 41.525002C14.864865 44.481251 13.445946 46.40625 10.810811 46.40625L9.7972975 46.40625L9.7972975 8.25ZM27 8.59375L32 8.59375L32 55L42 55L42 0L34.333332 0L27 3.4375L27 8.59375Z"/>
</svg>
